<?xml version="1.0" standalone="no"?>
<!DOCTYPE svg PUBLIC "-//W3C//DTD SVG 20010904//EN"
 "http://www.w3.org/TR/2001/REC-SVG-20010904/DTD/svg10.dtd">
<svg version="1.0" xmlns="http://www.w3.org/2000/svg"
 width="1000.000000pt" height="1306.000000pt" viewBox="0 0 1000.000000 1306.000000"
 preserveAspectRatio="xMidYMid meet">

<g transform="translate(0.000000,1306.000000) scale(0.100000,-0.100000)"
fill="#000000" stroke="none">
<path d="M1740 12544 c-66 -18 -109 -43 -189 -109 -60 -49 -61 -51 -61 -101
l0 -52 -82 -39 c-146 -71 -195 -117 -561 -530 -11 -13 -34 -79 -55 -160 -30
-122 -35 -154 -36 -273 -1 -157 11 -202 100 -382 l54 -108 0 -153 c0 -177 -11
-282 -45 -423 -24 -103 -41 -142 -203 -496 -178 -386 -265 -624 -331 -898 -91
-375 -116 -584 -116 -960 1 -338 15 -470 86 -810 165 -792 606 -1701 1138
-2344 244 -296 662 -655 1081 -928 497 -325 903 -473 1490 -545 207 -26 809
-25 1025 0 250 30 522 85 679 139 102 34 267 125 377 207 122 91 190 153 478
431 169 162 233 232 309 335 133 180 328 419 396 485 32 30 77 91 103 135 25
44 54 94 64 111 l19 31 -49 69 -49 70 18 104 c21 123 16 136 -62 176 -26 13
-48 28 -48 32 0 4 89 43 198 87 403 160 778 325 936 412 44 25 155 94 246 153
91 59 214 137 274 173 59 37 155 104 212 149 57 46 120 92 139 104 63 37 96
77 140 169 60 125 71 171 51 220 -16 37 -15 39 14 101 46 99 40 149 -30 245
-26 36 -27 41 -18 96 5 32 8 82 5 112 -4 61 -4 61 -127 141 -41 27 -103 71
-138 97 -83 65 -171 109 -259 131 -40 9 -73 19 -73 22 0 3 48 48 107 100 326
287 479 471 588 703 25 53 88 238 149 438 119 391 126 434 84 546 -30 83 -105
192 -160 233 -25 19 -63 56 -82 82 -47 62 -109 98 -167 98 -24 0 -105 -9 -179
-20 -74 -11 -286 -38 -470 -60 -796 -96 -958 -133 -1565 -357 -345 -128 -495
-177 -775 -253 -606 -164 -778 -199 -1031 -207 -434 -15 -850 93 -1106 286
-44 33 -172 149 -284 257 -227 218 -288 270 -487 411 -231 165 -326 277 -467
558 -112 221 -246 600 -248 700 0 22 19 99 42 170 49 150 50 193 5 276 -32 58
-60 77 -175 119 l-86 31 -114 151 c-62 83 -123 156 -134 164 -11 7 -43 16 -72
20 -46 6 -56 11 -99 61 -26 31 -62 62 -80 69 -44 19 -222 17 -294 -2z m144
-179 c21 -14 25 -14 39 0 22 21 54 7 75 -35 10 -21 24 -35 35 -35 10 0 26 -10
35 -22 9 -12 26 -23 37 -25 31 -6 23 -29 -40 -118 -56 -79 -58 -81 -77 -63
-38 34 -79 -28 -44 -66 15 -17 15 -20 -5 -45 -20 -26 -22 -26 -41 -9 -14 13
-23 15 -36 7 -23 -15 -27 -58 -7 -74 14 -12 13 -17 -16 -46 -17 -18 -38 -30
-45 -27 -21 8 -44 -16 -44 -46 0 -26 -19 -48 -119 -136 -29 -26 -33 -27 -27
-9 9 28 -23 68 -47 59 -19 -8 -33 -48 -22 -65 4 -6 16 -15 28 -19 18 -7 16
-10 -19 -32 -29 -18 -56 -24 -111 -27 -67 -3 -72 -2 -75 19 -2 12 -11 27 -21
33 -15 9 -22 6 -38 -13 -19 -23 -23 -24 -62 -14 -23 7 -55 17 -71 23 -27 10
-28 11 -11 30 20 22 17 48 -7 64 -25 15 -53 -5 -53 -38 1 -14 0 -26 -2 -26 -9
0 -73 35 -73 40 0 4 21 30 48 58 39 43 51 50 74 45 32 -6 55 25 39 55 -7 13 4
31 57 87 37 40 67 65 69 58 7 -20 51 -15 63 7 8 14 8 26 -1 41 -10 19 -7 25
17 45 17 14 43 23 62 24 25 0 35 5 42 25 6 15 17 25 29 25 11 0 27 12 37 28
12 22 22 28 39 24 29 -5 51 29 36 56 -14 26 14 68 34 52 29 -24 61 3 56 47 -2
16 15 25 74 39 66 16 62 16 89 -1z m490 -362 c30 -33 62 -56 93 -68 78 -29
177 -81 197 -104 19 -21 19 -22 -34 -124 -131 -252 -197 -347 -319 -457 -104
-94 -249 -207 -290 -226 -40 -19 -118 -15 -223 11 l-66 17 -7 71 c-9 101 -31
189 -59 245 l-24 47 40 30 c123 92 291 299 478 587 l94 146 38 -62 c21 -35 58
-86 82 -113z m-1274 -526 c58 -24 128 -50 157 -57 34 -9 53 -19 56 -32 4 -12
14 -18 36 -18 17 0 31 5 31 10 0 6 24 10 53 10 l54 0 25 -47 c38 -71 68 -223
44 -223 -7 0 -21 -9 -31 -20 -15 -17 -16 -24 -7 -45 7 -15 20 -25 32 -25 11 0
20 -4 20 -9 0 -24 -95 -91 -170 -121 -48 -19 -54 -19 -70 -5 -24 21 -37 19
-57 -11 -15 -24 -21 -26 -69 -21 -68 7 -157 45 -150 64 14 34 -40 73 -59 43
-3 -5 -10 -10 -14 -10 -13 0 -50 84 -67 152 -15 58 -15 61 5 79 26 25 27 55 1
71 -36 23 -25 118 16 137 26 11 31 40 13 69 -9 15 -8 24 6 45 12 18 21 24 29
18 6 -5 58 -29 116 -54z m1618 -597 c124 -308 295 -582 444 -712 35 -30 126
-99 203 -153 183 -128 237 -173 440 -366 365 -348 537 -452 899 -544 430 -109
770 -97 1321 45 679 175 674 173 1300 442 267 115 477 178 792 237 216 40 595
95 878 126 127 13 244 27 261 29 l31 4 5 -93 c4 -77 11 -104 36 -159 17 -36
43 -82 58 -101 15 -20 25 -38 22 -41 -3 -2 -68 -41 -144 -86 -76 -44 -296
-181 -489 -303 -443 -280 -588 -367 -800 -476 -327 -169 -898 -422 -1179 -523
-54 -20 -100 -36 -102 -36 -2 0 -4 22 -4 49 0 41 -3 50 -21 54 -46 12 -78 -65
-43 -104 14 -16 12 -18 -33 -33 -40 -13 -302 -86 -309 -86 -1 0 -5 11 -8 25
-8 32 -40 49 -65 36 -19 -11 -36 -55 -26 -71 5 -9 -3 -12 -60 -25 -28 -6 -29
-6 -12 13 31 34 12 112 -29 112 -40 0 -59 -77 -28 -112 14 -14 14 -18 3 -23
-22 -8 -170 -24 -324 -36 l-139 -10 -19 25 c-22 31 -52 34 -69 6 -10 -16 -24
-20 -63 -20 -48 0 -49 1 -27 16 42 29 21 114 -28 114 -38 0 -54 -78 -23 -112
19 -22 17 -22 -82 -8 -94 14 -110 19 -96 33 18 18 13 65 -9 87 -11 11 -23 20
-27 20 -28 -1 -55 -54 -46 -89 5 -19 3 -20 -28 -11 -19 6 -34 10 -35 10 -1 0
1 11 4 25 12 63 -30 105 -69 69 -10 -9 -19 -28 -19 -41 0 -28 -8 -28 -89 0
-53 19 -66 29 -80 57 -18 40 -44 49 -71 25 -17 -15 -23 -13 -104 27 -57 28
-86 48 -86 59 0 20 -20 30 -47 23 -26 -7 -202 97 -232 136 -13 19 -30 30 -40
28 -27 -5 -71 23 -87 54 -8 15 -18 29 -22 29 -4 1 -17 3 -28 4 -22 2 -70 33
-193 123 -54 39 -70 57 -62 65 6 6 11 26 11 43 0 61 -60 88 -82 37 -7 -16 -13
-29 -14 -31 -1 -2 -25 13 -53 34 -35 27 -51 45 -51 61 0 13 -9 32 -20 43 -17
17 -24 19 -42 9 -26 -14 -37 -2 -169 176 -44 61 -134 182 -199 270 -108 145
-117 161 -97 165 12 3 29 18 37 33 13 24 13 30 0 55 -21 37 -54 40 -76 8 -9
-15 -14 -35 -11 -47 3 -12 4 -19 2 -17 -40 40 -115 149 -115 166 0 36 -18 62
-43 62 -30 0 -147 147 -147 185 0 37 -17 65 -39 65 -14 0 -28 22 -56 93 -70
173 -115 317 -108 348 4 22 0 38 -15 58 -18 24 -42 90 -42 115 0 4 7 6 15 3 8
-4 17 -1 21 4 8 14 -36 110 -47 103 -18 -11 -28 109 -14 181 6 32 2 49 -16 84
l-23 44 23 41 c13 23 46 76 73 119 l51 77 57 -172 c32 -95 71 -207 88 -248z
m-374 -350 c88 -345 128 -436 322 -740 89 -140 207 -319 261 -398 479 -695
496 -718 662 -882 213 -212 456 -383 758 -534 377 -188 621 -253 1068 -286
288 -21 489 -12 915 41 135 16 331 39 435 50 105 11 280 33 390 50 368 55 409
60 620 66 242 7 501 -8 650 -38 397 -79 745 -213 788 -305 26 -54 29 -103 12
-194 -9 -47 -19 -106 -22 -132 -5 -46 -6 -47 -47 -53 -78 -13 -432 -96 -601
-141 -471 -125 -829 -246 -1285 -434 -412 -169 -681 -240 -1106 -292 -151 -18
-232 -22 -519 -22 -352 0 -505 10 -805 54 -420 61 -821 215 -1180 453 -635
421 -1094 1091 -1285 1880 -19 78 -57 275 -84 438 -50 294 -66 381 -200 1039
-90 444 -123 632 -119 677 l3 36 88 18 c66 13 107 29 165 63 l77 45 6 -177 c5
-145 11 -196 33 -282z m-514 328 c0 -7 -33 -49 -126 -160 -33 -40 -66 -82 -72
-94 -17 -33 -98 -354 -131 -519 -83 -422 -68 -595 107 -1180 33 -110 88 -306
122 -435 150 -574 238 -826 395 -1139 171 -341 343 -585 581 -827 426 -430
928 -745 1459 -913 55 -18 108 -36 118 -42 9 -5 36 -12 58 -14 54 -7 60 -12
53 -39 -4 -18 1 -28 17 -40 41 -28 89 -15 89 24 0 12 7 15 28 12 22 -3 31 -11
38 -35 7 -27 15 -33 43 -35 26 -3 39 2 51 18 15 20 19 20 90 9 41 -7 88 -21
104 -32 25 -18 33 -19 62 -8 44 16 98 6 89 -16 -9 -26 22 -63 53 -63 34 0 52
16 52 47 0 27 7 27 208 16 119 -6 122 -7 122 -29 0 -29 41 -58 70 -49 25 8 43
40 35 64 -5 17 4 19 117 25 143 9 180 12 305 26 87 11 93 10 112 -9 32 -32 79
-22 93 20 2 6 51 16 110 23 106 12 107 12 117 -10 5 -12 19 -25 31 -29 28 -9
70 19 70 46 0 22 15 23 106 4 24 -5 36 -2 50 13 15 16 38 22 107 28 l87 7 0
-25 c0 -40 23 -62 63 -60 22 1 45 -6 61 -19 24 -19 26 -26 26 -102 0 -123 0
-122 -83 -137 -40 -7 -82 -16 -95 -21 -20 -8 -21 -7 -12 11 13 24 0 54 -31 70
-30 17 -69 -11 -69 -50 0 -29 10 -36 48 -31 88 12 -287 -115 -478 -161 -97
-23 -424 -81 -610 -107 -902 -129 -1656 -74 -2293 165 -275 103 -575 273 -797
450 -193 155 -444 427 -618 671 -375 525 -669 1280 -769 1973 -25 178 -25 758
0 975 27 227 73 510 132 815 30 151 59 313 64 360 15 118 13 294 -3 365 -8 33
-14 60 -13 61 1 0 25 9 52 18 66 24 158 76 219 124 l50 38 68 -20 c37 -12 68
-24 68 -28z m-612 -153 c79 0 101 -3 97 -13 -5 -14 -52 -342 -91 -637 -14
-110 -41 -288 -60 -395 -90 -504 -98 -583 -97 -935 0 -291 14 -462 59 -723
103 -603 362 -1254 711 -1786 592 -902 1326 -1347 2438 -1478 176 -21 847 -17
1060 5 411 44 942 134 1112 188 54 17 165 56 246 85 81 30 150 54 152 54 3 0
5 -7 5 -15 0 -10 10 -15 28 -16 71 -2 66 -9 -90 -149 -298 -268 -428 -423
-428 -513 0 -26 20 -10 231 195 223 215 359 361 429 460 25 37 36 45 46 37 11
-9 10 -20 -5 -57 -10 -26 -28 -72 -40 -103 -12 -30 -51 -93 -86 -140 -36 -46
-107 -143 -159 -215 -113 -156 -135 -180 -341 -367 -488 -444 -678 -556 -1085
-637 -260 -52 -403 -65 -735 -64 -389 0 -672 32 -1000 113 -473 117 -944 366
-1440 765 -661 530 -1099 1133 -1440 1981 -333 828 -415 1603 -254 2400 50
250 124 449 364 980 65 143 130 292 145 330 52 129 80 315 80 533 l0 133 23
-8 c12 -4 68 -8 125 -8z m661 -147 c1 -56 17 -122 82 -353 50 -179 69 -274
129 -635 81 -496 115 -669 177 -914 131 -520 308 -886 608 -1261 414 -518 925
-880 1492 -1060 343 -108 912 -174 1393 -162 366 10 656 48 962 126 217 56
328 95 716 253 793 322 1037 400 1428 457 153 22 225 41 296 77 26 13 51 24
56 24 5 0 18 -19 28 -42 10 -23 37 -65 58 -92 l40 -50 -105 -98 c-95 -90 -204
-169 -410 -299 -98 -61 -235 -129 -457 -228 -97 -44 -249 -114 -337 -156 -319
-154 -611 -276 -785 -329 -79 -24 -360 -77 -660 -125 -550 -88 -1199 -131
-1516 -102 -915 86 -1658 435 -2275 1068 -85 87 -158 172 -174 201 -16 29 -33
52 -39 52 -13 0 -86 93 -86 109 0 5 5 11 12 13 8 3 5 19 -11 52 -22 44 -24 46
-41 31 -16 -15 -19 -12 -47 32 -74 117 -83 137 -76 176 7 43 -8 67 -42 67 -19
0 -31 19 -78 125 -95 209 -213 537 -201 556 3 6 -4 28 -15 49 -11 22 -39 104
-60 182 l-40 141 24 23 c28 25 30 36 15 65 -7 12 -21 19 -39 19 -27 0 -30 4
-45 65 -20 78 -20 72 4 78 23 6 37 53 23 76 -6 9 -24 16 -41 16 -31 0 -31 0
-26 45 10 84 12 88 38 83 18 -4 29 2 42 22 16 25 16 30 3 54 -10 17 -23 26
-38 25 -21 -1 -22 2 -15 40 8 50 8 50 32 37 24 -13 62 11 62 40 0 32 -19 59
-40 59 -25 0 -25 7 1 67 52 120 71 220 76 398 3 106 1 205 -6 260 -15 107 -73
339 -131 519 l-42 128 33 35 c30 30 34 31 41 16 3 -10 7 -35 7 -55z m-130
-329 c1 -8 -15 -30 -34 -49 -19 -19 -35 -31 -35 -28 0 12 30 136 37 155 6 14
10 10 19 -22 7 -22 13 -47 13 -56z m-37 -261 c-42 -43 -78 -76 -80 -74 -2 2 3
39 11 81 14 72 19 81 69 132 l53 54 12 -58 12 -58 -77 -77z m96 -50 l9 -57
-103 -108 -103 -108 0 60 c-1 35 5 72 14 89 14 27 165 189 171 183 2 -1 7 -28
12 -59z m-80 -365 c-51 -51 -96 -93 -100 -93 -5 0 -8 28 -8 63 l1 62 97 100
97 100 3 -69 3 -70 -93 -93z m76 -70 c-16 -74 -21 -82 -82 -146 -36 -37 -68
-65 -70 -62 -3 3 -9 29 -13 58 l-7 52 91 92 c50 51 93 91 95 88 2 -2 -4 -39
-14 -82z m7746 -24 c0 -4 -32 -42 -71 -85 -272 -299 -475 -551 -637 -791 -69
-101 -49 -121 54 -55 112 73 196 172 228 269 9 28 31 71 48 95 30 41 360 369
366 364 1 -2 -9 -36 -24 -77 -43 -121 -161 -340 -246 -456 -118 -160 -325
-359 -556 -535 -169 -129 -199 -148 -230 -148 -32 0 -39 5 -52 33 -11 23 -23
33 -43 35 -24 3 -30 -2 -40 -27 -17 -45 -48 -39 -61 12 -4 16 -17 33 -32 39
-23 11 -29 9 -45 -11 -11 -13 -19 -31 -19 -40 0 -14 -11 -16 -80 -13 l-80 4 0
35 c0 37 -23 73 -46 73 -23 0 -44 -31 -44 -66 0 -31 -3 -34 -29 -34 -16 0 -31
6 -34 14 -3 8 -15 20 -27 26 -17 9 -24 7 -45 -14 -21 -21 -34 -24 -119 -27
-67 -3 -99 0 -107 9 -18 17 -39 15 -63 -7 -14 -13 -43 -22 -88 -26 -66 -7 -67
-7 -74 19 -17 68 -94 47 -94 -25 0 -10 -6 -19 -12 -19 -7 0 -24 -3 -37 -7 -21
-5 -22 -4 -12 15 17 31 13 67 -8 86 -26 24 -53 17 -70 -18 -12 -25 -11 -33 2
-61 l16 -33 -82 -12 c-45 -7 -149 -20 -232 -29 l-150 -17 -18 29 c-23 37 -57
33 -77 -9 -15 -31 -16 -32 -112 -39 -95 -6 -118 -3 -118 15 0 13 72 31 109 28
16 -1 38 5 48 13 15 13 175 69 197 69 3 0 6 -5 6 -12 0 -18 31 -48 50 -48 26
0 44 27 44 65 0 27 5 35 24 40 13 3 25 5 26 3 10 -22 25 -44 39 -52 24 -16 57
19 57 61 0 27 5 35 26 43 21 8 31 6 51 -10 23 -18 29 -19 47 -7 12 8 22 26 24
41 4 28 52 56 98 56 12 0 30 7 38 15 9 9 81 45 162 81 594 264 791 371 1449
789 246 157 450 281 595 363 l55 31 27 -26 c16 -15 28 -30 28 -34z m-7831
-270 c-6 -41 -17 -80 -24 -88 -11 -11 -15 -3 -25 44 l-12 57 33 34 c18 18 34
32 36 30 2 -2 -2 -37 -8 -77z m4555 -1259 c-5 -5 -36 -12 -69 -14 l-60 -5 55
13 c70 17 87 19 74 6z m746 -2806 c0 -3 -12 -21 -26 -40 l-26 -34 -20 26 c-23
29 -23 28 17 42 35 12 55 14 55 6z"/>
<path d="M1870 12276 c-15 -19 -9 -56 12 -69 34 -22 66 41 36 71 -16 16 -33
15 -48 -2z"/>
<path d="M1732 12238 c-7 -7 -12 -20 -12 -29 0 -18 25 -49 40 -49 13 0 40 30
40 45 0 17 -27 45 -44 45 -6 0 -17 -5 -24 -12z"/>
<path d="M2007 12209 c-18 -25 -11 -56 15 -64 38 -13 66 43 36 73 -18 18 -35
15 -51 -9z"/>
<path d="M1651 12116 c-17 -20 -10 -56 12 -70 15 -9 22 -7 38 13 17 21 18 26
6 45 -18 26 -40 31 -56 12z"/>
<path d="M1816 12114 c-19 -18 -20 -28 -6 -55 19 -35 70 -14 70 30 0 12 -28
41 -40 41 -5 0 -16 -7 -24 -16z"/>
<path d="M1520 12071 c-25 -47 36 -83 64 -38 8 12 8 22 0 35 -16 25 -51 27
-64 3z"/>
<path d="M1714 11986 c-10 -40 2 -58 33 -54 25 3 28 7 28 38 0 31 -3 35 -27
38 -22 3 -29 -2 -34 -22z"/>
<path d="M1427 11989 c-35 -20 -16 -83 24 -77 19 2 25 10 27 35 4 37 -22 58
-51 42z"/>
<path d="M1550 11946 c-15 -19 -9 -56 12 -69 34 -22 66 41 36 71 -16 16 -33
15 -48 -2z"/>
<path d="M1656 11884 c-19 -18 -20 -28 -6 -55 19 -35 70 -14 70 30 0 12 -28
41 -40 41 -5 0 -16 -7 -24 -16z"/>
<path d="M1274 11866 c-3 -8 -4 -25 -2 -38 2 -18 9 -23 33 -23 28 0 30 3 30
35 0 31 -3 35 -28 38 -17 2 -29 -2 -33 -12z"/>
<path d="M1462 11838 c-32 -32 9 -96 44 -67 22 18 14 73 -11 77 -11 1 -26 -3
-33 -10z"/>
<path d="M1345 11767 c-34 -26 -1 -89 39 -74 23 9 21 63 -3 76 -13 7 -23 6
-36 -2z"/>
<path d="M1620 11735 c-10 -12 -10 -21 -1 -41 13 -29 47 -30 65 -1 23 37 -36
76 -64 42z"/>
<path d="M1221 11706 c-17 -20 -10 -56 12 -70 15 -9 22 -7 38 13 17 21 18 26
6 45 -18 26 -40 31 -56 12z"/>
<path d="M1418 11664 c-11 -23 -10 -29 10 -45 28 -22 50 -15 58 17 13 51 -47
75 -68 28z"/>
<path d="M1022 11448 c-27 -27 -3 -73 35 -66 27 5 25 72 -2 76 -11 1 -26 -3
-33 -10z"/>
<path d="M1144 11386 c-3 -8 -4 -25 -2 -38 2 -18 9 -23 33 -23 28 0 30 3 30
35 0 31 -3 35 -28 38 -17 2 -29 -2 -33 -12z"/>
<path d="M1264 11315 c-4 -8 -3 -26 0 -40 5 -18 13 -25 32 -25 29 0 47 35 32
63 -11 21 -56 23 -64 2z"/>
<path d="M1426 11314 c-19 -18 -21 -45 -4 -62 20 -20 48 -14 60 13 9 21 8 28
-7 45 -22 24 -29 25 -49 4z"/>
<path d="M1010 11295 c-16 -19 -5 -61 17 -69 10 -4 24 1 37 13 17 17 18 24 8
46 -13 28 -43 33 -62 10z"/>
<path d="M1152 11238 c-32 -32 9 -96 44 -67 22 18 14 73 -11 77 -11 1 -26 -3
-33 -10z"/>
<path d="M1315 11174 c-18 -18 -19 -46 -3 -62 31 -31 80 8 59 47 -15 26 -38
33 -56 15z"/>
<path d="M1430 11166 c-15 -19 -9 -56 12 -69 34 -22 66 41 36 71 -16 16 -33
15 -48 -2z"/>
<path d="M957 11143 c-12 -12 -7 -60 7 -72 35 -29 76 35 44 67 -13 13 -41 16
-51 5z"/>
<path d="M1210 11106 c-15 -19 -9 -56 12 -69 34 -22 66 41 36 71 -16 16 -33
15 -48 -2z"/>
<path d="M1087 11093 c-4 -3 -7 -21 -7 -40 0 -28 3 -33 25 -33 31 0 50 32 35
60 -10 19 -40 27 -53 13z"/>
<path d="M1317 11038 c-20 -10 -22 -49 -5 -66 31 -31 80 8 59 47 -13 24 -33
31 -54 19z"/>
<path d="M1420 11006 c-15 -19 -9 -56 12 -69 34 -22 66 41 36 71 -16 16 -33
15 -48 -2z"/>
<path d="M1162 10968 c-24 -24 -8 -78 24 -78 17 0 44 28 44 45 0 17 -27 45
-44 45 -6 0 -17 -5 -24 -12z"/>
<path d="M2622 10428 c-32 -32 4 -119 43 -105 20 8 18 24 -8 75 -18 33 -25 40
-35 30z"/>
<path d="M2670 10211 c-23 -44 -4 -101 33 -101 13 0 28 5 35 12 16 16 16 80 0
96 -18 18 -56 14 -68 -7z"/>
<path d="M2813 9978 c-28 -35 -20 -99 14 -112 22 -9 52 12 59 41 13 51 -44
107 -73 71z"/>
<path d="M2960 9858 c0 -8 9 -23 20 -33 11 -10 20 -15 20 -11 0 4 -9 19 -20
33 -13 17 -20 20 -20 11z"/>
<path d="M3200 9491 c-23 -44 -4 -101 34 -101 48 0 64 49 30 90 -30 35 -49 38
-64 11z"/>
<path d="M3340 9354 c0 -36 20 -57 50 -52 20 3 20 5 -14 43 l-35 40 -1 -31z"/>
<path d="M3384 9194 c-20 -29 -11 -69 19 -88 37 -24 68 29 53 90 -9 33 -50 32
-72 -2z"/>
<path d="M3540 9111 c-14 -28 -13 -53 6 -79 21 -30 54 -25 73 10 15 26 14 29
-14 58 -33 35 -50 38 -65 11z"/>
<path d="M3687 8996 c-7 -17 2 -56 16 -73 13 -18 42 -16 57 2 14 17 5 33 -41
65 -22 16 -28 17 -32 6z"/>
<path d="M3912 8802 c-40 -13 -32 -104 10 -118 26 -8 58 22 58 56 0 29 -45 70
-68 62z"/>
<path d="M4016 8694 c-27 -71 40 -138 74 -73 17 30 11 56 -15 73 -31 20 -51
20 -59 0z"/>
<path d="M4250 8537 c0 -26 28 -57 52 -57 15 0 45 27 37 33 -31 24 -69 47 -78
47 -6 0 -11 -11 -11 -23z"/>
<path d="M4410 8457 c0 -21 30 -57 49 -57 9 0 22 5 29 12 9 9 3 17 -26 34 -43
27 -52 29 -52 11z"/>
<path d="M4597 8332 c-32 -35 -13 -112 27 -112 41 0 61 83 28 113 -24 22 -35
21 -55 -1z"/>
<path d="M6968 8293 c7 -3 16 -2 19 1 4 3 -2 6 -13 5 -11 0 -14 -3 -6 -6z"/>
<path d="M6730 8277 c0 -22 30 -57 50 -57 20 0 50 35 50 57 0 9 -16 13 -50 13
-34 0 -50 -4 -50 -13z"/>
<path d="M6498 8272 c-34 -3 -38 -6 -38 -31 0 -27 26 -61 47 -61 18 0 43 36
43 63 0 31 -4 33 -52 29z"/>
<path d="M4866 8238 c-22 -31 -20 -64 4 -88 22 -22 29 -24 46 -12 37 24 39 93
4 112 -27 15 -37 12 -54 -12z"/>
<path d="M6307 8212 c-26 -29 -22 -78 8 -98 24 -16 27 -16 45 1 36 32 18 115
-24 115 -7 0 -20 -8 -29 -18z"/>
<path d="M5953 8213 c-29 -6 -30 -36 -3 -63 17 -17 24 -18 41 -10 22 12 39 48
32 68 -5 12 -26 13 -70 5z"/>
<path d="M5210 8171 c0 -28 29 -71 48 -71 25 1 61 65 45 81 -4 4 -27 11 -50
15 -43 7 -43 6 -43 -25z"/>
<path d="M5542 8178 c11 -33 68 -36 68 -3 0 11 -10 15 -36 15 -23 0 -34 -4
-32 -12z"/>
<path d="M5796 8158 c-33 -47 -4 -118 42 -103 43 13 48 103 7 119 -26 10 -33
8 -49 -16z"/>
<path d="M5650 8110 c-24 -24 -26 -57 -4 -88 20 -29 50 -28 70 3 19 30 11 81
-16 95 -25 13 -27 13 -50 -10z"/>
<path d="M6244 5405 c-15 -23 -15 -27 0 -50 11 -17 26 -25 44 -25 35 0 52 16
52 50 0 34 -17 50 -52 50 -18 0 -33 -8 -44 -25z"/>
<path d="M6692 5404 c-12 -8 -22 -26 -22 -39 0 -24 33 -55 57 -55 18 0 53 37
53 55 0 18 -35 55 -53 55 -7 0 -23 -7 -35 -16z"/>
<path d="M4682 5384 c-24 -17 -29 -56 -9 -72 28 -22 56 -23 76 -3 26 26 26 46
1 71 -24 24 -38 25 -68 4z"/>
<path d="M5912 5384 c-12 -8 -22 -26 -22 -39 0 -24 33 -55 57 -55 18 0 53 37
53 55 0 18 -35 55 -53 55 -7 0 -23 -7 -35 -16z"/>
<path d="M5255 5360 c-15 -16 -17 -26 -9 -48 8 -23 15 -27 49 -27 34 0 41 4
49 27 12 33 -14 68 -49 68 -12 0 -30 -9 -40 -20z"/>
<path d="M6487 5362 c-37 -41 -12 -86 45 -80 25 2 35 9 42 30 18 53 -50 91
-87 50z"/>
<path d="M5672 5344 c-30 -21 -29 -59 3 -80 54 -35 115 37 65 78 -27 22 -39
23 -68 2z"/>
<path d="M6902 5344 c-30 -21 -29 -59 4 -81 24 -15 29 -15 53 -2 35 20 40 62
9 83 -28 20 -38 20 -66 0z"/>
<path d="M4888 5278 c-22 -18 -29 -45 -15 -56 25 -20 74 -31 86 -19 17 17 13
52 -7 70 -22 20 -43 22 -64 5z"/>
<path d="M6124 5280 c-42 -17 -35 -84 11 -96 54 -13 88 59 43 90 -25 18 -25
18 -54 6z"/>
<path d="M5068 5259 c-27 -15 -23 -65 6 -84 38 -25 66 -5 66 44 0 49 -30 65
-72 40z"/>
<path d="M6298 5259 c-27 -15 -23 -65 6 -84 38 -25 66 -5 66 44 0 49 -30 65
-72 40z"/>
<path d="M5502 5234 c-21 -14 -32 -73 -14 -75 61 -9 85 -4 95 19 10 21 8 27
-16 48 -33 28 -36 29 -65 8z"/>
<path d="M5812 5234 c-23 -16 -30 -58 -11 -70 19 -11 73 -13 87 -2 26 22 7 70
-33 82 -12 3 -30 -1 -43 -10z"/>
<path d="M5252 5184 c-12 -8 -22 -24 -22 -35 0 -16 7 -19 56 -19 53 0 55 1 49
23 -4 12 -10 25 -14 28 -16 16 -48 18 -69 3z"/>
<path d="M6482 5184 c-39 -27 -19 -94 29 -94 30 0 61 37 53 63 -8 27 -14 33
-39 41 -12 3 -30 -1 -43 -10z"/>
<path d="M5975 5144 c-30 -30 -15 -49 43 -52 50 -3 52 -2 52 22 0 42 -63 62
-95 30z"/>
<path d="M1941 9316 c-17 -20 -10 -67 11 -80 25 -15 30 -4 23 48 -8 48 -15 55
-34 32z"/>
<path d="M1978 9055 c-8 -19 -8 -31 0 -50 15 -32 47 -35 38 -2 -3 12 -6 34 -6
50 0 34 -17 35 -32 2z"/>
<path d="M1953 8884 c-15 -24 -15 -29 -2 -53 18 -32 41 -38 63 -16 20 21 21
59 0 79 -22 23 -41 20 -61 -10z"/>
<path d="M1982 8668 c-13 -13 -16 -47 -6 -72 4 -9 18 -16 34 -16 29 0 40 15
40 54 0 26 -17 46 -40 46 -9 0 -21 -5 -28 -12z"/>
<path d="M1956 8408 c-21 -29 -20 -51 2 -71 23 -21 36 -21 56 -1 21 21 20 57
-2 77 -25 23 -38 21 -56 -5z"/>
<path d="M2052 8268 c-7 -7 -12 -26 -12 -43 0 -50 33 -71 64 -39 31 30 15 94
-24 94 -9 0 -21 -5 -28 -12z"/>
<path d="M2082 8046 c-20 -45 28 -95 63 -66 18 15 20 61 3 78 -20 20 -54 14
-66 -12z"/>
<path d="M2121 7841 c-16 -29 -13 -49 9 -71 17 -17 24 -18 41 -10 16 9 19 19
17 53 -3 37 -6 42 -30 45 -18 2 -30 -3 -37 -17z"/>
<path d="M2210 7711 c-14 -27 -13 -47 6 -65 22 -22 54 -21 54 3 0 32 -21 81
-36 81 -7 0 -18 -9 -24 -19z"/>
<path d="M2282 7568 c-15 -15 -15 -61 0 -76 7 -7 20 -12 31 -12 19 0 18 11 -7
72 -9 22 -15 25 -24 16z"/>
<path d="M2400 7275 c-4 -32 1 -49 16 -64 23 -25 25 -6 5 40 -14 31 -20 38
-21 24z"/>
<path d="M7536 8261 c-8 -13 8 -54 27 -70 12 -9 21 -10 36 -1 26 14 39 59 20
71 -18 12 -76 11 -83 0z"/>
<path d="M7690 8216 c0 -40 24 -68 54 -64 17 2 22 11 24 44 3 39 1 42 -29 48
-48 9 -49 9 -49 -28z"/>
<path d="M7386 8214 c-23 -22 -20 -77 4 -99 18 -17 21 -17 45 -1 42 28 27 116
-20 116 -7 0 -21 -7 -29 -16z"/>
<path d="M8108 8151 c13 -11 30 -17 37 -14 18 6 20 23 3 23 -7 0 -24 3 -38 6
l-25 6 23 -21z"/>
<path d="M1060 3091 c-59 -9 -87 -25 -110 -64 -19 -31 -20 -58 -20 -862 0
-770 1 -832 18 -864 34 -68 69 -82 272 -106 368 -44 669 25 841 195 70 69 104
124 125 205 26 96 10 208 -44 309 -35 68 -162 194 -236 236 l-59 33 29 20 c16
11 56 48 89 82 175 179 173 397 -5 575 -110 109 -254 178 -459 220 -111 22
-360 35 -441 21z m240 -254 c257 -14 475 -111 526 -234 21 -48 5 -90 -52 -143
-99 -92 -214 -126 -586 -175 l-38 -5 0 108 c0 227 13 472 24 463 6 -4 63 -11
126 -14z m6 -817 c228 -19 378 -62 508 -148 110 -73 152 -163 112 -241 -21
-41 -91 -100 -150 -127 -103 -47 -177 -58 -378 -59 -110 0 -191 4 -197 10 -8
9 -51 463 -51 543 0 20 5 32 14 32 7 0 71 -5 142 -10z"/>
<path d="M2862 2581 c-118 -33 -206 -85 -303 -181 -74 -72 -93 -99 -132 -180
-55 -116 -77 -209 -77 -333 0 -490 476 -807 933 -621 83 33 143 73 210 141
155 157 221 370 183 591 -29 167 -87 275 -216 403 -82 80 -186 143 -290 173
-90 27 -222 30 -308 7z m138 -229 c0 -5 27 -13 59 -19 290 -54 452 -382 321
-649 -37 -76 -101 -136 -188 -177 -62 -30 -75 -32 -172 -32 -102 0 -109 1
-182 38 -224 110 -297 372 -173 616 48 95 162 190 265 222 34 10 70 11 70 1z"/>
<path d="M5732 2581 c-118 -33 -206 -85 -303 -181 -74 -72 -93 -99 -132 -180
-55 -116 -77 -209 -77 -333 0 -490 476 -807 933 -621 83 33 143 73 210 141
155 157 221 370 183 591 -29 167 -87 275 -216 403 -82 80 -186 143 -290 173
-90 27 -222 30 -308 7z m138 -229 c0 -5 27 -13 59 -19 290 -54 452 -382 321
-649 -37 -76 -101 -136 -188 -177 -62 -30 -75 -32 -172 -32 -102 0 -109 1
-182 38 -224 110 -297 372 -173 616 48 95 162 190 265 222 34 10 70 11 70 1z"/>
<path d="M8500 2574 c-58 -11 -159 -48 -220 -80 -135 -70 -239 -182 -310 -329
-64 -132 -75 -187 -75 -370 1 -149 2 -165 28 -240 91 -258 278 -368 526 -310
96 23 156 60 257 162 l92 91 7 -63 c8 -79 29 -159 49 -190 8 -13 35 -31 60
-40 45 -17 46 -17 93 6 34 17 53 35 66 61 18 36 18 41 2 115 -24 109 -31 374
-14 543 17 179 14 242 -16 338 -61 194 -209 301 -425 308 -52 1 -106 0 -120
-2z m207 -273 c90 -41 127 -162 84 -274 -81 -219 -288 -499 -388 -526 -62 -18
-127 -14 -156 9 -64 50 -97 148 -97 285 0 301 191 521 455 524 39 0 75 -6 102
-18z"/>
<path d="M4468 2555 c-268 -68 -465 -319 -509 -652 -28 -214 33 -455 147 -582
89 -99 199 -130 347 -97 127 28 229 119 312 278 20 38 39 68 41 65 8 -7 -16
-236 -32 -315 -35 -167 -108 -318 -189 -390 -63 -55 -136 -76 -239 -69 -94 7
-160 28 -275 87 -99 51 -134 50 -193 -10 -31 -31 -38 -45 -38 -77 0 -67 32
-101 147 -159 149 -75 240 -98 388 -99 91 0 133 5 175 19 368 125 550 570 510
1251 -13 238 -33 397 -59 470 -43 122 -137 226 -239 266 -73 28 -212 35 -294
14z m230 -265 c38 -24 58 -64 71 -146 8 -53 6 -67 -21 -144 -59 -169 -168
-363 -261 -466 -41 -45 -53 -52 -97 -58 -93 -12 -135 34 -166 184 -54 270 74
566 275 633 68 23 159 21 199 -3z"/>
<path d="M6765 2549 c-88 -27 -99 -58 -115 -357 -27 -520 87 -879 308 -962
208 -79 428 81 539 390 l23 65 -6 -60 c-10 -102 -63 -403 -90 -509 -66 -262
-156 -398 -271 -412 -36 -5 -70 3 -171 40 -119 44 -229 -83 -160 -184 42 -61
182 -112 313 -113 314 -1 502 281 582 873 15 111 18 202 18 515 -1 405 -12
589 -40 631 -22 34 -74 64 -110 64 -36 0 -88 -30 -110 -63 -9 -14 -21 -76 -30
-148 -39 -318 -108 -540 -220 -708 -117 -178 -195 -185 -255 -24 -67 178 -83
432 -49 761 7 73 6 99 -5 126 -24 58 -93 92 -151 75z"/>
</g>
</svg>
