<?xml version="1.0" standalone="no"?>
<!DOCTYPE svg PUBLIC "-//W3C//DTD SVG 20010904//EN"
 "http://www.w3.org/TR/2001/REC-SVG-20010904/DTD/svg10.dtd">
<svg version="1.0" xmlns="http://www.w3.org/2000/svg"
 width="1920.000000pt" height="1080.000000pt" viewBox="0 0 1920.000000 1080.000000"
 preserveAspectRatio="xMidYMid meet">

<g transform="translate(0.000000,1080.000000) scale(0.100000,-0.100000)"
fill="#000000" stroke="none">
<path d="M3210 8020 c-6 -11 -19 -20 -30 -20 -26 0 -2230 -2204 -2230 -2231 0
-11 -7 -22 -15 -25 -12 -5 -15 -33 -15 -164 0 -131 3 -159 15 -164 8 -3 15
-15 15 -26 0 -13 361 -381 1100 -1120 605 -604 1100 -1104 1100 -1111 0 -7 9
-9 26 -5 20 5 27 3 31 -14 5 -19 13 -20 163 -20 149 0 159 1 165 20 5 15 12
18 36 13 22 -4 29 -2 29 10 0 18 64 87 80 87 6 0 10 7 10 15 0 8 7 15 15 15 8
0 15 7 15 15 0 8 7 15 15 15 8 0 15 7 15 15 0 8 7 15 15 15 8 0 15 7 15 15 0
8 7 15 15 15 8 0 15 7 15 15 0 8 7 15 15 15 8 0 15 7 15 15 0 8 7 15 15 15 8
0 15 4 15 10 0 12 378 390 390 390 6 0 10 7 10 15 0 8 7 15 15 15 8 0 15 7 15
15 0 8 7 15 15 15 8 0 15 7 15 15 0 8 7 15 15 15 8 0 15 7 15 15 0 8 7 15 15
15 8 0 15 7 15 15 0 8 7 15 15 15 8 0 15 7 15 15 0 8 7 15 15 15 8 0 15 4 15
10 0 12 408 420 420 420 6 0 10 7 10 15 0 8 7 15 15 15 8 0 15 7 15 15 0 8 7
15 15 15 8 0 15 7 15 15 0 8 7 15 15 15 8 0 15 7 15 15 0 8 7 15 15 15 8 0 15
7 15 15 0 8 7 15 15 15 8 0 15 7 15 15 0 8 7 15 15 15 8 0 15 4 15 10 0 5 86
95 190 200 105 104 195 190 200 190 6 0 10 7 10 15 0 8 7 15 15 15 8 0 15 7
15 15 0 8 7 15 15 15 8 0 15 7 15 15 0 8 7 15 15 15 8 0 15 7 15 15 0 8 7 15
15 15 8 0 15 7 15 15 0 8 7 15 15 15 8 0 15 7 15 15 0 8 7 15 15 15 8 0 15 7
15 15 0 8 7 15 15 15 8 0 15 4 15 10 0 17 112 120 123 113 7 -4 8 5 4 26 -6
27 -4 34 13 38 19 5 20 14 20 163 0 150 -1 158 -20 163 -17 4 -19 11 -14 31 4
16 2 26 -5 26 -13 0 -2191 2177 -2191 2190 0 6 -12 10 -28 10 -16 0 -32 8 -40
20 -11 19 -23 20 -162 20 -139 0 -150 -1 -160 -20z m-549 -1123 c33 -21 41
-57 29 -132 -6 -38 -15 -72 -19 -75 -14 -9 -48 -281 -46 -365 2 -69 6 -126 20
-255 2 -14 10 -47 18 -75 9 -27 25 -81 36 -120 11 -38 36 -99 55 -135 20 -36
40 -76 46 -89 12 -28 113 -166 144 -197 12 -12 31 -32 42 -45 45 -50 148 -139
181 -158 12 -6 28 -17 35 -23 18 -17 45 -33 88 -55 19 -9 40 -22 46 -28 6 -6
31 -19 55 -30 24 -11 46 -22 49 -25 3 -4 34 -17 70 -30 36 -13 69 -27 75 -32
5 -4 19 -8 31 -8 13 0 25 -4 29 -9 3 -6 26 -13 50 -17 25 -3 48 -10 51 -15 3
-5 17 -9 31 -9 14 0 39 -6 56 -14 18 -8 128 -28 245 -46 173 -26 245 -33 378
-33 90 0 164 -4 164 -9 0 -4 8 -8 18 -8 30 0 66 -66 65 -121 -1 -41 -7 -56
-37 -93 -57 -70 -218 -176 -266 -176 -9 0 -21 -5 -28 -12 -6 -6 -18 -13 -26
-14 -7 -1 -40 -10 -72 -19 -33 -9 -72 -19 -89 -21 -16 -2 -42 -6 -57 -9 -77
-17 -179 -26 -343 -30 -127 -2 -177 1 -325 25 -96 15 -188 33 -203 39 -16 6
-39 11 -53 11 -13 0 -24 5 -24 10 0 6 -6 10 -14 10 -18 0 -153 57 -166 70 -3
3 -27 16 -55 30 -101 51 -285 193 -409 316 -41 42 -145 163 -165 193 -13 20
-32 45 -42 56 -36 41 -147 255 -155 298 -2 17 -8 37 -13 46 -21 42 -38 132
-45 246 -4 70 19 228 34 233 5 2 10 17 10 33 0 16 5 29 10 29 6 0 10 6 10 13
0 26 92 153 149 207 l59 55 36 240 c52 344 79 402 175 389 24 -3 52 -11 62
-17z m232 -1069 c34 -24 64 -45 67 -48 6 -6 44 -28 90 -52 19 -10 42 -22 50
-27 34 -20 164 -71 181 -71 11 0 19 -4 19 -10 0 -5 11 -10 24 -10 14 0 27 -4
30 -9 4 -5 30 -12 59 -16 28 -4 57 -11 62 -16 15 -11 322 -59 425 -66 111 -8
283 -7 390 0 89 6 228 24 239 31 3 3 25 7 48 11 24 3 66 14 95 24 29 10 55 19
58 19 5 1 9 2 69 21 38 12 56 4 67 -32 3 -11 22 -42 42 -69 32 -46 34 -51 21
-76 -8 -15 -22 -36 -31 -46 -10 -11 -18 -23 -18 -27 0 -16 -90 -135 -142 -189
-84 -88 -216 -181 -224 -159 -1 2 -11 -4 -21 -13 -36 -33 -169 -32 -386 2
-104 17 -195 34 -201 40 -7 5 -35 12 -64 16 -29 4 -55 10 -57 15 -3 4 -26 11
-50 15 -25 3 -48 10 -51 15 -3 5 -16 9 -30 9 -13 0 -32 4 -42 10 -33 18 -153
70 -163 70 -5 0 -9 4 -9 9 0 5 -8 11 -17 15 -38 12 -185 110 -191 128 -2 4
-10 8 -17 8 -27 0 -171 141 -256 250 -79 102 -165 270 -138 270 5 0 38 -19 72
-42z"/>
<path d="M5670 7966 l-295 -41 -3 -495 -2 -495 314 -314 314 -313 93 36 c184
70 279 90 429 91 127 0 138 -2 191 -28 60 -29 97 -72 120 -142 11 -32 14 -143
14 -525 0 -421 -2 -493 -17 -543 -36 -125 -96 -189 -217 -229 -59 -20 -91 -22
-296 -25 l-230 -3 -237 -237 c-150 -150 -233 -240 -225 -244 42 -22 575 -53
792 -46 668 22 964 234 1034 742 7 46 11 283 11 599 0 580 -5 638 -64 796 -77
207 -219 335 -435 391 -206 54 -537 26 -837 -72 -66 -21 -124 -39 -127 -39 -4
0 -7 266 -7 590 0 466 -3 590 -12 589 -7 -1 -146 -20 -308 -43z"/>
<path d="M8500 6960 c-490 -60 -762 -299 -841 -740 -20 -107 -20 -953 0 -1060
74 -413 316 -647 751 -727 132 -24 477 -24 606 0 466 86 712 341 764 792 13
117 13 813 0 930 -52 449 -300 708 -758 791 -103 19 -414 27 -522 14z m427
-544 c108 -34 192 -120 226 -231 9 -29 12 -165 12 -495 0 -494 0 -495 -57
-589 -39 -64 -105 -113 -187 -139 -79 -24 -332 -24 -411 0 -111 34 -177 96
-223 209 -21 52 -22 68 -25 481 -2 270 1 448 7 484 30 158 115 250 269 289 78
20 317 14 389 -9z"/>
<path d="M10720 6960 c-256 -30 -435 -104 -566 -234 -78 -79 -123 -151 -158
-254 -42 -123 -51 -202 -51 -452 0 -250 11 -331 58 -445 47 -112 134 -223 225
-287 l44 -30 -75 -69 c-125 -115 -177 -222 -177 -364 0 -202 65 -321 214 -391
95 -44 160 -56 586 -104 549 -61 567 -65 606 -125 10 -15 19 -55 22 -94 12
-168 -65 -206 -438 -218 -298 -9 -506 9 -813 69 -87 17 -160 29 -162 27 -5 -6
-77 -450 -73 -453 8 -7 221 -56 303 -70 373 -64 859 -72 1175 -20 111 18 256
64 320 101 73 43 155 128 189 197 53 108 65 179 66 386 0 167 -2 192 -23 260
-61 195 -196 301 -432 340 -36 6 -235 28 -443 50 -208 22 -393 47 -412 54 -40
17 -55 42 -55 93 0 48 41 116 95 157 38 30 39 30 196 32 86 2 195 8 240 14
409 54 656 253 723 582 23 109 31 377 17 518 -11 100 -39 212 -75 291 -6 13 9
20 81 39 48 13 109 29 136 37 l47 14 0 154 0 155 -377 0 c-340 0 -388 2 -478
20 -115 24 -411 34 -535 20z m444 -519 c75 -30 127 -77 157 -144 23 -49 24
-63 24 -257 0 -195 -1 -208 -24 -258 -49 -109 -152 -160 -341 -169 -249 -13
-388 48 -437 192 -22 65 -25 371 -5 452 26 101 95 165 212 197 41 12 93 15
205 13 128 -3 159 -7 209 -26z"/>
<path d="M13020 6960 c-424 -52 -694 -246 -799 -575 -53 -166 -56 -202 -56
-695 0 -493 3 -529 56 -695 97 -304 336 -493 709 -562 132 -24 477 -24 606 0
466 86 712 341 764 792 13 117 13 813 0 930 -52 449 -300 708 -758 791 -103
19 -414 27 -522 14z m427 -544 c108 -34 192 -120 226 -231 9 -29 12 -165 12
-495 0 -494 0 -495 -57 -589 -39 -64 -105 -113 -187 -139 -79 -24 -332 -24
-411 0 -111 34 -177 96 -223 209 -21 52 -22 68 -25 481 -2 270 1 448 7 484 30
158 115 250 269 289 78 20 317 14 389 -9z"/>
<path d="M17156 6959 c-126 -10 -274 -32 -404 -60 -84 -18 -102 -25 -102 -40
0 -25 38 -221 44 -227 3 -2 31 0 63 6 130 26 338 52 498 63 360 24 571 -25
672 -159 61 -81 66 -113 71 -454 l4 -308 -414 0 c-227 0 -452 -5 -498 -10
-331 -40 -487 -190 -530 -508 -17 -122 -8 -321 19 -425 55 -212 188 -346 401
-404 89 -24 348 -24 475 0 147 29 304 83 438 150 l126 64 5 -26 c3 -14 8 -56
11 -93 l7 -68 124 0 125 0 -3 993 -3 992 -28 82 c-116 344 -472 484 -1101 432z
m844 -1738 l0 -298 -57 -35 c-255 -157 -574 -239 -806 -209 -134 18 -219 70
-258 158 -41 96 -49 342 -14 460 39 130 124 193 285 213 36 4 242 8 458 9
l392 1 0 -299z"/>
<path d="M14340 6914 c0 -5 779 -2304 820 -2421 l12 -32 82 -3 82 -3 -178
-480 c-98 -264 -180 -488 -183 -497 -6 -17 5 -18 138 -18 l144 0 181 498 c155
424 1012 2927 1012 2953 0 6 -63 8 -147 7 l-147 -3 -381 -1122 c-209 -617
-383 -1116 -386 -1110 -3 7 -174 513 -380 1124 l-374 1113 -147 0 c-82 0 -148
-3 -148 -6z"/>
</g>
</svg>
